<svg width="840" height="774" viewBox="0 0 840 774" fill="none" xmlns="http://www.w3.org/2000/svg">
<ellipse cx="487.5" cy="492" rx="352.5" ry="282" fill="url(#paint0_linear_7_3)"/>
<path d="M577.39 137.588C577.39 137.588 582.173 97.8245 543.368 99.2929C525.172 99.9814 479.04 146.103 468.242 170.632C457.445 195.161 405 231.831 405 231.831L684.922 279.788C684.922 279.788 657.293 245.632 652.192 210.263C647.091 174.893 627.013 129.186 606.886 122.35C591.014 116.958 577.39 137.588 577.39 137.588Z" fill="#DF0909"/>
<path d="M238.811 394.346C92.5497 553.161 258.537 637.064 354.762 644.056C354.762 644.056 652 649.275 681.926 644.056C711.853 638.836 789.442 577.154 792.928 525.16C796.413 473.166 789.305 445.528 757.971 399.352C715 337.275 657.713 363.294 630 379.275C595.359 399.252 567.093 416.285 493 424.275C418.907 432.266 321.141 304.95 238.811 394.346Z" fill="url(#paint1_linear_7_3)"/>
<ellipse cx="276.5" cy="504.275" rx="32.5" ry="47" fill="black"/>
<ellipse cx="694.362" cy="501.312" rx="30" ry="44" transform="rotate(-11.3327 694.362 501.312)" fill="black"/>
<path d="M591 544.684L371 567.684L498.5 593.684L591 544.684Z" fill="#EBB000"/>
<path d="M473 513.184C407 531.184 372 569.184 372 569.184L591.5 545.184C591.5 545.184 539 495.184 473 513.184Z" fill="#FFC518"/>
<path d="M2.34457 398.052L38.9534 303.984L61.5389 307.781L81.2189 405.158L49.1242 392.677L50.551 333.53L40.3142 408.723L2.34457 398.052Z" fill="#FFC518"/>
<path d="M13.0002 278.645L3.64771 263.461L207.825 71.9815L520.243 13.1828L519.82 30.732L207.558 83.031L13.0002 278.645Z" fill="black" stroke="black"/>
<path d="M207.605 81.0811L13.6947 276.711L318.311 219.024L522.394 31.4444L207.605 81.0811Z" fill="#282626"/>
<path d="M132.799 227.63L406.283 96.6782L454.236 197.608L180.753 328.559L132.799 227.63Z" fill="url(#paint2_linear_7_3)"/>
<path d="M406.139 94.5082C416.024 115.21 362.419 161.643 286.41 198.221C210.4 234.798 140.769 247.668 130.884 226.967C121 206.265 174.604 159.832 250.614 123.254C326.623 86.6768 396.254 73.8067 406.139 94.5082Z" fill="url(#paint3_linear_7_3)"/>
<path d="M453.818 196.21C462.128 213.613 407.504 257.249 331.812 293.673C256.12 330.098 188.023 345.519 179.713 328.116C171.403 310.713 226.027 267.077 301.72 230.653C377.412 194.228 445.509 178.807 453.818 196.21Z" fill="url(#paint4_linear_7_3)"/>
<path d="M60.2705 279.785L48.7402 274.304C68.1271 158.229 94.885 160.956 109.131 161.3L97.1302 175.318C77.8138 170.3 67.3611 245.488 60.2705 279.785Z" fill="#FFC518"/>
<ellipse cx="52.2648" cy="289.347" rx="20.7273" ry="18.2045" transform="rotate(1.38194 52.2648 289.347)" fill="#EBB000"/>
<defs>
<linearGradient id="paint0_linear_7_3" x1="574.5" y1="302.5" x2="430" y2="983" gradientUnits="userSpaceOnUse">
<stop stop-color="#DF0909"/>
<stop offset="1" stop-color="#790505"/>
</linearGradient>
<linearGradient id="paint1_linear_7_3" x1="487.367" y1="360" x2="578.5" y2="1156.78" gradientUnits="userSpaceOnUse">
<stop stop-color="#3F3F3F"/>
<stop offset="1" stop-color="#131313"/>
</linearGradient>
<linearGradient id="paint2_linear_7_3" x1="311" y1="111" x2="492.5" y2="456" gradientUnits="userSpaceOnUse">
<stop stop-color="#161616"/>
<stop offset="1" stop-color="#7C7C7C"/>
</linearGradient>
<linearGradient id="paint3_linear_7_3" x1="311" y1="111" x2="492.5" y2="456" gradientUnits="userSpaceOnUse">
<stop stop-color="#161616"/>
<stop offset="1" stop-color="#7C7C7C"/>
</linearGradient>
<linearGradient id="paint4_linear_7_3" x1="311" y1="111" x2="492.5" y2="456" gradientUnits="userSpaceOnUse">
<stop stop-color="#161616"/>
<stop offset="1" stop-color="#7C7C7C"/>
</linearGradient>
</defs>
</svg>
